name rise37.2698peak67.6939fall79.5734.mot
datacolumns 19
datarows 26
range 19.21492500000000 19.25660200000000
endheader
time	ground_force1_vx	ground_force1_vy	ground_force1_vz	ground_force1_px	ground_force1_py	ground_force1_pz	ground_force2_vx	ground_force2_vy	ground_force2_vz	ground_force2_px	ground_force2_py	ground_force2_pz	ground_torque1_x	ground_torque1_y	ground_torque1_z	ground_torque2_x	ground_torque2_y	ground_torque2_z	
19.21492500000000	-39.83822800000000	794.81818699999997	51.04480300000000	0.14327100000000	0.00000000000000	0.09896600000000	-5.51043400000000	85.93106500000000	8.90472800000000	0.39555900000000	0.00000000000000	-0.07146100000000	0.00000000000000	21.11342700000000	0.00000000000000	0.00000000000000	6.60464800000000	0.00000000000000	
19.21660700000000	-40.44704100000000	793.19192399999997	50.90725500000000	0.14265400000000	0.00000000000000	0.09887100000000	-5.28575000000000	89.65370000000000	9.10564900000000	0.39911300000000	0.00000000000000	-0.07142700000000	0.00000000000000	21.07343500000000	0.00000000000000	0.00000000000000	6.87154700000000	0.00000000000000	
19.21826200000000	-41.06867200000000	791.46866899999998	50.74721800000000	0.14205100000000	0.00000000000000	0.09877200000000	-5.01665000000000	93.32907700000000	9.27925800000000	0.40248000000000	0.00000000000000	-0.07139900000000	0.00000000000000	21.03197500000000	0.00000000000000	0.00000000000000	7.12381100000000	0.00000000000000	
19.21993700000000	-41.70327900000000	789.64681099999996	50.56457300000000	0.14145900000000	0.00000000000000	0.09866800000000	-4.70961500000000	97.00550300000000	9.43085900000000	0.40566500000000	0.00000000000000	-0.07137700000000	0.00000000000000	20.98908000000000	0.00000000000000	0.00000000000000	7.36422600000000	0.00000000000000	
19.22159700000000	-42.35098100000000	787.72472700000003	50.35924100000000	0.14087800000000	0.00000000000000	0.09856100000000	-4.37000100000000	100.72380400000000	9.56478700000000	0.40867100000000	0.00000000000000	-0.07136200000000	0.00000000000000	20.94477800000000	0.00000000000000	0.00000000000000	7.59508400000000	0.00000000000000	
19.22326000000000	-43.01185200000000	785.70078500000000	50.13118500000000	0.14030600000000	0.00000000000000	0.09844900000000	-4.00187100000000	104.51575699999999	9.68423100000000	0.41150200000000	0.00000000000000	-0.07135500000000	0.00000000000000	20.89909300000000	0.00000000000000	0.00000000000000	7.81803100000000	0.00000000000000	
19.22492500000000	-43.68591700000000	783.57334100000003	49.88041100000000	0.13974200000000	0.00000000000000	0.09833400000000	-3.60796700000000	108.40346599999999	9.79115800000000	0.41416000000000	0.00000000000000	-0.07135600000000	0.00000000000000	20.85204200000000	0.00000000000000	0.00000000000000	8.03398900000000	0.00000000000000	
19.22659900000000	-44.37314900000000	781.34074499999997	49.60696600000000	0.13918300000000	0.00000000000000	0.09821500000000	-3.18978400000000	112.39955000000000	9.88636000000000	0.41664800000000	0.00000000000000	-0.07136500000000	0.00000000000000	20.80363700000000	0.00000000000000	0.00000000000000	8.24315200000000	0.00000000000000	
19.22826600000000	-45.07346700000000	779.00133300000005	49.31093700000000	0.13862800000000	0.00000000000000	0.09809200000000	-2.74772400000000	116.50798300000000	9.96956200000000	0.41896900000000	0.00000000000000	-0.07138400000000	0.00000000000000	20.75388500000000	0.00000000000000	0.00000000000000	8.44503400000000	0.00000000000000	
19.22993100000000	-45.78673200000000	776.55343500000004	48.99245200000000	0.13807600000000	0.00000000000000	0.09796600000000	-2.28131300000000	120.72541099999999	10.03960700000000	0.42112400000000	0.00000000000000	-0.07141300000000	0.00000000000000	20.70278800000000	0.00000000000000	0.00000000000000	8.63857000000000	0.00000000000000	
19.23159700000000	-46.51274300000000	773.99536799999998	48.65168200000000	0.13752400000000	0.00000000000000	0.09783600000000	-1.78944000000000	125.04274900000000	10.09466000000000	0.42311500000000	0.00000000000000	-0.07145200000000	0.00000000000000	20.65034500000000	0.00000000000000	0.00000000000000	8.82224000000000	0.00000000000000	
19.23326200000000	-47.25123700000000	771.32544299999995	48.28883400000000	0.13697000000000	0.00000000000000	0.09770400000000	-1.27060600000000	129.44688900000000	10.13243400000000	0.42494500000000	0.00000000000000	-0.07150100000000	0.00000000000000	20.59654800000000	0.00000000000000	0.00000000000000	8.99420300000000	0.00000000000000	
19.23492900000000	-48.00188200000000	768.54196400000001	47.90415500000000	0.13641400000000	0.00000000000000	0.09756800000000	-0.72315800000000	133.92238000000000	10.15040700000000	0.42661400000000	0.00000000000000	-0.07156000000000	0.00000000000000	20.54138500000000	0.00000000000000	0.00000000000000	9.15244900000000	0.00000000000000	
19.23660800000000	-48.76427800000000	765.64322800000002	47.49792900000000	0.13585200000000	0.00000000000000	0.09742900000000	-0.14549500000000	138.45295400000001	10.14601600000000	0.42812600000000	0.00000000000000	-0.07163000000000	0.00000000000000	20.48484100000000	0.00000000000000	0.00000000000000	9.29492100000000	0.00000000000000	
19.23826000000000	-49.53795400000000	762.62752999999998	47.07047700000000	0.13528300000000	0.00000000000000	0.09728700000000	0.46376400000000	143.02281800000000	10.11682600000000	0.42948100000000	0.00000000000000	-0.07171100000000	0.00000000000000	20.42689700000000	0.00000000000000	0.00000000000000	9.41963900000000	0.00000000000000	
19.23992600000000	-50.32236200000000	759.49316299999998	46.62215600000000	0.13470500000000	0.00000000000000	0.09714300000000	1.10566000000000	147.61766000000000	10.06065100000000	0.43068300000000	0.00000000000000	-0.07180300000000	0.00000000000000	20.36752700000000	0.00000000000000	0.00000000000000	9.52478900000000	0.00000000000000	
19.24159700000000	-51.11688000000000	756.23841900000002	46.15335500000000	0.13411600000000	0.00000000000000	0.09699700000000	1.78081100000000	152.22535500000001	9.97565100000000	0.43173200000000	0.00000000000000	-0.07190500000000	0.00000000000000	20.30670500000000	0.00000000000000	0.00000000000000	9.60879000000000	0.00000000000000	
19.24326000000000	-51.92080700000000	752.86159699999996	45.66449800000000	0.13351400000000	0.00000000000000	0.09684800000000	2.48937900000000	156.83637899999999	9.86037800000000	0.43263100000000	0.00000000000000	-0.07201800000000	0.00000000000000	20.24440100000000	0.00000000000000	0.00000000000000	9.67033900000000	0.00000000000000	
19.24493300000000	-52.73336400000000	749.36099999999999	45.15603800000000	0.13289700000000	0.00000000000000	0.09669800000000	3.23106700000000	161.44394700000001	9.71379300000000	0.43338300000000	0.00000000000000	-0.07214200000000	0.00000000000000	20.18057900000000	0.00000000000000	0.00000000000000	9.70843400000000	0.00000000000000	
19.24659300000000	-53.55369000000000	745.73494500000004	44.62845900000000	0.13226400000000	0.00000000000000	0.09654500000000	4.00514700000000	166.04393500000000	9.53526000000000	0.43399000000000	0.00000000000000	-0.07227700000000	0.00000000000000	20.11520200000000	0.00000000000000	0.00000000000000	9.72236400000000	0.00000000000000	
19.24826200000000	-54.38084000000000	741.98176100000001	44.08227400000000	0.13161300000000	0.00000000000000	0.09639200000000	4.81051600000000	170.63462799999999	9.32450400000000	0.43445400000000	0.00000000000000	-0.07242200000000	0.00000000000000	20.04822900000000	0.00000000000000	0.00000000000000	9.71170300000000	0.00000000000000	
19.24993100000000	-55.21379100000000	738.09979599999997	43.51802200000000	0.13094200000000	0.00000000000000	0.09623600000000	5.64575800000000	175.21634800000001	9.08157100000000	0.43477900000000	0.00000000000000	-0.07257700000000	0.00000000000000	19.97961600000000	0.00000000000000	0.00000000000000	9.67627400000000	0.00000000000000	
19.25160600000000	-56.05143400000000	734.08742500000005	42.93626600000000	0.13025000000000	0.00000000000000	0.09608000000000	6.50921700000000	179.79101199999999	8.80676700000000	0.43496800000000	0.00000000000000	-0.07274100000000	0.00000000000000	19.90931600000000	0.00000000000000	0.00000000000000	9.61611900000000	0.00000000000000	
19.25326100000000	-56.89257900000000	729.94304699999998	42.33759300000000	0.12953500000000	0.00000000000000	0.09592200000000	7.39907100000000	184.36167200000000	8.50060100000000	0.43502500000000	0.00000000000000	-0.07291600000000	0.00000000000000	19.83727800000000	0.00000000000000	0.00000000000000	9.53145400000000	0.00000000000000	
19.25492700000000	-57.73595200000000	725.66509699999995	41.72261200000000	0.12879500000000	0.00000000000000	0.09576400000000	8.31339600000000	188.93208100000001	8.16372900000000	0.43495300000000	0.00000000000000	-0.07309900000000	0.00000000000000	19.76344700000000	0.00000000000000	0.00000000000000	9.42264000000000	0.00000000000000	
19.25660200000000	-58.58020000000000	721.25205200000005	41.09195200000000	0.12803000000000	0.00000000000000	0.09560500000000	9.25023200000000	193.50629200000000	7.79690200000000	0.43475500000000	0.00000000000000	-0.07329200000000	0.00000000000000	19.68776800000000	0.00000000000000	0.00000000000000	9.29013900000000	0.00000000000000	
